<?xml version="1.0" standalone="no"?>
<!DOCTYPE svg PUBLIC "-//W3C//DTD SVG 20010904//EN"
 "http://www.w3.org/TR/2001/REC-SVG-20010904/DTD/svg10.dtd">
<svg version="1.0" xmlns="http://www.w3.org/2000/svg"
 width="100.000000pt" height="100.000000pt" viewBox="0 0 100.000000 100.000000"
 preserveAspectRatio="xMidYMid meet">

<g transform="translate(0.000000,100.000000) scale(0.100000,-0.100000)"
fill="#000000" stroke="none">
<path d="M336 719 l-46 -51 0 -119 0 -119 30 0 30 0 0 107 c0 84 3 110 16 124
19 21 36 97 24 104 -5 3 -29 -18 -54 -46z"/>
<path d="M733 433 c-41 -72 -129 -142 -180 -143 -23 -1 -43 -17 -71 -57 -32
-45 -28 -53 22 -53 92 0 192 45 262 118 32 33 88 148 79 162 -3 5 -25 10 -49
10 -39 0 -44 -3 -63 -37z"/>
</g>
</svg>
